<svg width="100" height="120" viewBox="0 0 100 120" fill="none" xmlns="http://www.w3.org/2000/svg">
<rect y="10" width="100" height="100" rx="12" fill="#254074"/>
<path d="M44.32 88L32 66.24H26.72V88H15.52V32.16H36.48C40.8 32.16 44.48 32.9333 47.52 34.48C50.56 35.9733 52.8267 38.0267 54.32 40.64C55.8667 43.2 56.64 46.08 56.64 49.28C56.64 52.96 55.5733 56.2933 53.44 59.28C51.3067 62.2133 48.1333 64.24 43.92 65.36L57.28 88H44.32ZM26.72 57.84H36.08C39.12 57.84 41.3867 57.12 42.88 55.68C44.3733 54.1867 45.12 52.1333 45.12 49.52C45.12 46.96 44.3733 44.9867 42.88 43.6C41.3867 42.16 39.12 41.44 36.08 41.44H26.72V57.84ZM81.25 31.2L79.97 69.84H70.53L69.17 31.2H81.25ZM75.49 88.56C73.4633 88.56 71.7833 87.9467 70.45 86.72C69.17 85.44 68.53 83.8667 68.53 82C68.53 80.1333 69.17 78.5867 70.45 77.36C71.7833 76.08 73.4633 75.44 75.49 75.44C77.4633 75.44 79.09 76.08 80.37 77.36C81.65 78.5867 82.29 80.1333 82.29 82C82.29 83.8667 81.65 85.44 80.37 86.72C79.09 87.9467 77.4633 88.56 75.49 88.56Z" fill="white"/>
</svg>
